<?xml version="1.0" encoding="UTF-8"?>
<svg version="1.1" xmlns="http://www.w3.org/2000/svg" width="660" height="224">
<path d="M0 0 C16.95842945 14.7968087 25.14783577 30.31434774 27.38671875 52.87109375 C28.63111959 72.9370573 23.33858707 92.67913737 10.13671875 107.99609375 C-5.79660858 124.99341623 -26.38428825 134.31432853 -49.62109375 135.20703125 C-73.61772259 135.56380078 -95.31762327 131.44442514 -113.61328125 114.87109375 C-114.39058594 114.23429688 -115.16789062 113.5975 -115.96875 112.94140625 C-129.26081881 101.85354986 -136.1777343 85.81752702 -138.61328125 68.87109375 C-140.42899047 48.32318077 -136.20578873 28.53342304 -123.61328125 11.87109375 C-93.80087327 -23.15602585 -36.03408647 -29.35512276 0 0 Z M-94.61328125 7.87109375 C-95.34546875 8.57878906 -96.07765625 9.28648438 -96.83203125 10.015625 C-111.19200248 24.83032865 -115.26951251 42.1592194 -115.15649414 62.15917969 C-114.67216485 79.49439444 -109.08425366 94.90899812 -97.03125 107.6484375 C-84.59545394 119.07972661 -68.08150686 122.55704834 -51.6640625 122.11328125 C-36.10499126 121.36691877 -21.23230589 115.4883067 -10.61328125 103.87109375 C3.47295148 87.71849217 4.36737096 67.29453808 3.38671875 46.87109375 C2.92233162 42.36847356 1.85195431 38.15262622 0.38671875 33.87109375 C0.11988281 33.01128906 -0.14695312 32.15148437 -0.421875 31.265625 C-4.63281613 19.19426042 -13.71928075 8.29781364 -24.859375 2.05078125 C-45.17945652 -7.67466817 -77.4514197 -9.48578896 -94.61328125 7.87109375 Z " fill="#F0F0F0" transform="translate(558.61328125,53.12890625)"/>
<path d="M0 0 C3.71664785 -0.17408187 6.08970567 -0.06209216 9.5234375 1.40625 C12.7861053 5.67323318 14.71907869 10.17830906 16.65136719 15.16455078 C17.73889106 17.96008388 18.94112203 20.69606135 20.15454102 23.4387207 C20.7373719 24.75848302 21.31331293 26.08130801 21.88256836 27.40698242 C23.91107663 32.12181604 26.12981192 36.70935255 28.4609375 41.28125 C31.3338267 46.91610604 33.99156691 52.6102673 36.5234375 58.40625 C39.94032645 66.21294427 43.64612816 73.83384189 47.51464844 81.42529297 C62.5234375 110.89802154 62.5234375 110.89802154 62.5234375 114.40625 C63.1834375 114.40625 63.8434375 114.40625 64.5234375 114.40625 C64.905 113.1584375 65.2865625 111.910625 65.6796875 110.625 C67.62454109 104.79952733 70.30468165 99.40277076 73.0234375 93.90625 C77.17406268 85.39878863 81.14453923 76.84585516 84.8984375 68.15625 C89.43018561 57.69767 94.30357656 47.43084475 99.30737305 37.19311523 C103.74905719 28.09285365 107.99443139 18.91491961 112.06054688 9.64038086 C112.68219727 8.2502478 112.68219727 8.2502478 113.31640625 6.83203125 C113.85044067 5.61640503 113.85044067 5.61640503 114.39526367 4.3762207 C115.5234375 2.40625 115.5234375 2.40625 118.5234375 0.40625 C121.40625 0.359375 121.40625 0.359375 124.6484375 0.65625 C125.72351563 0.74390625 126.79859375 0.8315625 127.90625 0.921875 C129.20175781 1.16164062 129.20175781 1.16164062 130.5234375 1.40625 C130.8534375 2.06625 131.1834375 2.72625 131.5234375 3.40625 C130.81762695 5.33203125 130.81762695 5.33203125 129.63671875 7.71875 C129.19884033 8.61650146 128.76096191 9.51425293 128.30981445 10.43920898 C127.82343506 11.41833252 127.33705566 12.39745605 126.8359375 13.40625 C125.81333965 15.50044138 124.79257493 17.59552867 123.7734375 19.69140625 C123.23847656 20.78984863 122.70351563 21.88829102 122.15234375 23.02001953 C118.98327031 29.60800643 115.96343846 36.26557654 112.93676758 42.91992188 C110.31169379 48.65471261 107.58723422 54.32517606 104.75 59.95703125 C100.47331061 68.44697423 96.36994608 77.01541401 92.29663086 85.60449219 C91.09304347 88.14127288 89.88554977 90.67616763 88.67773438 93.2109375 C83.83443253 103.39774794 79.12719272 113.63805896 74.52832031 123.9375 C70.39381601 133.18723663 66.12841528 142.38049355 61.5234375 151.40625 C58.8834375 151.40625 56.2434375 151.40625 53.5234375 151.40625 C53.11206543 150.52815674 52.70069336 149.65006348 52.27685547 148.74536133 C50.31944375 144.56885604 48.3594357 140.39357239 46.3984375 136.21875 C46.03918182 135.4538324 45.67992615 134.68891479 45.30978394 133.90081787 C40.01402181 122.63171839 34.6411564 111.40316704 29.1980896 100.20458984 C25.74434849 93.09299626 22.38775524 85.95795515 19.2109375 78.71875 C14.49804745 68.00908614 9.17495221 57.60387432 3.91430664 47.15649414 C-1.69818149 36.00527375 -7.16234412 24.79361703 -12.47167969 13.49414062 C-13.3566677 11.65536086 -14.30639915 9.84804145 -15.265625 8.046875 C-16.4765625 5.40625 -16.4765625 5.40625 -16.4765625 1.40625 C-10.9896324 0.82253403 -5.47821643 0.64015113 0 0 Z " fill="#EEEEEE" transform="translate(270.4765625,35.59375)"/>
<path d="M0 0 C1.15411377 0.09676025 2.30822754 0.19352051 3.49731445 0.29321289 C4.80381958 0.40910767 4.80381958 0.40910767 6.13671875 0.52734375 C7.30023156 28.34978751 7.25846883 56.16156039 7.2053833 84.00372314 C7.19497406 90.05911908 7.19054881 96.11451949 7.18554688 102.16992188 C7.17496625 113.95574052 7.15800278 125.7415399 7.13671875 137.52734375 C8.58038063 137.52401283 8.58038063 137.52401283 10.0532074 137.52061462 C19.10332282 137.50038263 28.15343368 137.48537133 37.20356655 137.47553158 C41.85683061 137.4703029 46.51007649 137.46320552 51.16333008 137.4519043 C55.65016421 137.44107489 60.13698079 137.4350668 64.62382698 137.43246651 C66.33952168 137.43061235 68.05521537 137.42699193 69.77090263 137.42161369 C72.16556788 137.41440254 74.56015971 137.41335284 76.95483398 137.41381836 C77.67124557 137.41022308 78.38765717 137.40662781 79.1257782 137.40292358 C84.02266659 137.41329159 84.02266659 137.41329159 85.13671875 138.52734375 C85.13671875 142.48734375 85.13671875 146.44734375 85.13671875 150.52734375 C51.47671875 150.52734375 17.81671875 150.52734375 -16.86328125 150.52734375 C-17.15435872 115.5308757 -17.15435872 115.5308757 -17.26757812 100.84570312 C-17.3457485 90.71310674 -17.42501933 80.58052758 -17.51147461 70.44799805 C-17.57443934 63.06795603 -17.63362792 55.68789489 -17.68833679 48.30778688 C-17.71741835 44.40234194 -17.74835359 40.49693204 -17.78381538 36.59153938 C-17.81718153 32.91035655 -17.84547143 29.22916849 -17.86998749 25.54791641 C-17.88448936 23.56363788 -17.90426659 21.57940006 -17.92424011 19.59516907 C-17.96212933 13.14294503 -17.74233241 6.92166822 -16.86328125 0.52734375 C-11.12906669 -0.25867195 -5.78458516 -0.49708402 0 0 Z " fill="#F3F3F3" transform="translate(104.86328125,36.47265625)"/>
<path d="M0 0 C0.02353194 13.37334788 0.04111728 26.74669056 0.05181217 40.1200552 C0.05695413 46.33484585 0.06388607 52.54962199 0.07543945 58.7644043 C0.12994766 88.86045042 -0.06672188 118.91730031 -1 149 C-8.26 149 -15.52 149 -23 149 C-24.07170199 145.78489404 -24.12579535 143.48379162 -24.12698364 140.10324097 C-24.12980347 138.87209564 -24.13262329 137.64095032 -24.13552856 136.37249756 C-24.13358423 135.0059813 -24.13153606 133.63946518 -24.12939453 132.27294922 C-24.13074934 130.83572343 -24.13252973 129.39849798 -24.13470459 127.96127319 C-24.13926859 124.05654091 -24.13749381 120.15183501 -24.1343255 116.24710226 C-24.13179756 112.1662905 -24.13414057 108.08548103 -24.13571167 104.00466919 C-24.13753168 97.15333652 -24.13513104 90.30201463 -24.13037109 83.45068359 C-24.12492446 75.51912826 -24.12669472 67.58759861 -24.1321975 59.65604389 C-24.13672826 52.85432333 -24.13737949 46.05261052 -24.13475883 39.25088894 C-24.13319641 35.18480134 -24.13300143 31.11872584 -24.13629532 27.05263901 C-24.13917364 23.23269313 -24.13719909 19.41278055 -24.13140106 15.59283829 C-24.13007344 14.18710638 -24.13046762 12.78137169 -24.13266373 11.37564087 C-24.13537498 9.46469215 -24.13138063 7.55373733 -24.12698364 5.64279175 C-24.1264181 4.03503781 -24.1264181 4.03503781 -24.12584114 2.394804 C-24 0 -24 0 -23 -1 C-15.01708275 -2.23872854 -7.6817159 -2.71434933 0 0 Z " fill="#D8D8D8" transform="translate(235,38)"/>
<path d="M0 0 C1.15411377 0.09676025 2.30822754 0.19352051 3.49731445 0.29321289 C4.80381958 0.40910767 4.80381958 0.40910767 6.13671875 0.52734375 C7.30023156 28.34978751 7.25846883 56.16156039 7.2053833 84.00372314 C7.19497406 90.05911908 7.19054881 96.11451949 7.18554688 102.16992188 C7.17496625 113.95574052 7.15800278 125.7415399 7.13671875 137.52734375 C8.58038063 137.52401283 8.58038063 137.52401283 10.0532074 137.52061462 C19.10332282 137.50038263 28.15343368 137.48537133 37.20356655 137.47553158 C41.85683061 137.4703029 46.51007649 137.46320552 51.16333008 137.4519043 C55.65016421 137.44107489 60.13698079 137.4350668 64.62382698 137.43246651 C66.33952168 137.43061235 68.05521537 137.42699193 69.77090263 137.42161369 C72.16556788 137.41440254 74.56015971 137.41335284 76.95483398 137.41381836 C77.67124557 137.41022308 78.38765717 137.40662781 79.1257782 137.40292358 C84.02266659 137.41329159 84.02266659 137.41329159 85.13671875 138.52734375 C85.13671875 142.48734375 85.13671875 146.44734375 85.13671875 150.52734375 C51.47671875 150.52734375 17.81671875 150.52734375 -16.86328125 150.52734375 C-17.15435872 115.5308757 -17.15435872 115.5308757 -17.26757812 100.84570312 C-17.3457485 90.71310674 -17.42501933 80.58052758 -17.51147461 70.44799805 C-17.57443934 63.06795603 -17.63362792 55.68789489 -17.68833679 48.30778688 C-17.71741835 44.40234194 -17.74835359 40.49693204 -17.78381538 36.59153938 C-17.81718153 32.91035655 -17.84547143 29.22916849 -17.86998749 25.54791641 C-17.88448936 23.56363788 -17.90426659 21.57940006 -17.92424011 19.59516907 C-17.96212933 13.14294503 -17.74233241 6.92166822 -16.86328125 0.52734375 C-11.12906669 -0.25867195 -5.78458516 -0.49708402 0 0 Z M-15.86328125 1.52734375 C-15.86328125 50.36734375 -15.86328125 99.20734375 -15.86328125 149.52734375 C17.13671875 149.52734375 50.13671875 149.52734375 84.13671875 149.52734375 C84.13671875 146.22734375 84.13671875 142.92734375 84.13671875 139.52734375 C58.06671875 139.52734375 31.99671875 139.52734375 5.13671875 139.52734375 C5.13671875 93.98734375 5.13671875 48.44734375 5.13671875 1.52734375 C-1.79328125 1.52734375 -8.72328125 1.52734375 -15.86328125 1.52734375 Z " fill="#1D1D1D" transform="translate(104.86328125,36.47265625)"/>
<path d="M0 0 C3.72465516 -0.17445692 6.08558291 -0.07558388 9.5234375 1.40625 C12.76364345 5.724754 14.71498804 10.23931002 16.65917969 15.24951172 C17.48222844 17.30341362 18.39304583 19.27185197 19.375 21.25390625 C23.67294341 29.95773228 23.67294341 29.95773228 22.5234375 33.40625 C8.5234375 5.72604695 8.5234375 5.72604695 8.5234375 2.40625 C0.9334375 2.73625 -6.6565625 3.06625 -14.4765625 3.40625 C-13.4865625 5.05625 -12.4965625 6.70625 -11.4765625 8.40625 C-10.75904317 10.34193068 -10.04277894 12.27813195 -9.34277344 14.22021484 C-7.758744 18.21779083 -5.6528888 21.94566483 -3.6015625 25.71875 C-0.4156485 31.59856375 2.53516808 37.51728779 5.26806641 43.62182617 C7.35683297 48.25472829 9.56858766 52.82774151 11.7734375 57.40625 C12.52367187 58.9687146 12.52367187 58.9687146 13.2890625 60.56274414 C16.48515037 67.20797552 19.70799838 73.83962872 22.9453125 80.46484375 C23.71065943 82.03317997 24.47595885 83.60153937 25.24121094 85.16992188 C26.73524263 88.23180389 28.23399682 91.29131277 29.73535156 94.34960938 C32.94874392 100.91930869 36.05324022 107.45103574 38.67724609 114.28393555 C40.02346674 117.66036258 41.66934215 120.86660774 43.3359375 124.09375 C46.13041692 129.60515806 48.87910478 135.13353028 51.5234375 140.71875 C51.82612549 141.34676514 52.12881348 141.97478027 52.44067383 142.62182617 C53.75635836 145.4225255 54.5234375 147.26884286 54.5234375 150.40625 C56.5034375 150.40625 58.4834375 150.40625 60.5234375 150.40625 C60.7503125 149.478125 60.9771875 148.55 61.2109375 147.59375 C62.75245657 142.27708217 65.16218735 137.40015835 67.5234375 132.40625 C68.35053439 130.6251272 69.17733069 128.8438648 70.00390625 127.0625 C70.90560031 125.13511259 71.8079507 123.2080321 72.7109375 121.28125 C73.15115234 120.33169434 73.59136719 119.38213867 74.04492188 118.40380859 C74.67430664 117.0708374 74.67430664 117.0708374 75.31640625 115.7109375 C75.6930542 114.90640137 76.06970215 114.10186523 76.45776367 113.27294922 C77.5234375 111.40625 77.5234375 111.40625 79.5234375 110.40625 C77.09645738 118.74899417 73.34380724 126.36592641 69.59179688 134.17236328 C67.87644147 137.75908676 66.20010764 141.36382214 64.5234375 144.96875 C63.94016629 146.22008104 63.35683924 147.47138606 62.7734375 148.72265625 C62.3609375 149.60824219 61.9484375 150.49382812 61.5234375 151.40625 C58.8834375 151.40625 56.2434375 151.40625 53.5234375 151.40625 C53.11206543 150.52815674 52.70069336 149.65006348 52.27685547 148.74536133 C50.31944375 144.56885604 48.3594357 140.39357239 46.3984375 136.21875 C46.03918182 135.4538324 45.67992615 134.68891479 45.30978394 133.90081787 C40.01402181 122.63171839 34.6411564 111.40316704 29.1980896 100.20458984 C25.74434849 93.09299626 22.38775524 85.95795515 19.2109375 78.71875 C14.49804745 68.00908614 9.17495221 57.60387432 3.91430664 47.15649414 C-1.69818149 36.00527375 -7.16234412 24.79361703 -12.47167969 13.49414062 C-13.3566677 11.65536086 -14.30639915 9.84804145 -15.265625 8.046875 C-16.4765625 5.40625 -16.4765625 5.40625 -16.4765625 1.40625 C-10.9896324 0.82253403 -5.47821643 0.64015113 0 0 Z " fill="#373737" transform="translate(270.4765625,35.59375)"/>
<path d="M0 0 C7.94804767 3.31619223 13.4821087 11.76265369 16.94140625 19.3515625 C24.55181418 38.39162366 26.30957957 60.7659435 18.75 80.1875 C13.62382969 91.66533905 5.23972867 103.78798296 -6 110 C-8.44148779 110.69492062 -10.44200236 110.89341677 -13 111 C-13 111.66 -13 112.32 -13 113 C-14.37291868 113.48509793 -15.74846703 113.96275513 -17.125 114.4375 C-17.89070312 114.70433594 -18.65640625 114.97117187 -19.4453125 115.24609375 C-25.79733746 117.12062099 -31.9935731 117.18294141 -38.5625 117.1875 C-39.49513672 117.19974609 -40.42777344 117.21199219 -41.38867188 117.22460938 C-46.09044802 117.23466307 -49.70461319 117.1076245 -54 115 C-55.299375 114.79375 -56.59875 114.5875 -57.9375 114.375 C-64.95781195 112.94713994 -70.96607097 108.69073895 -77 105 C-76.505 104.01 -76.505 104.01 -76 103 C-74.51113281 103.81404297 -74.51113281 103.81404297 -72.9921875 104.64453125 C-55.87876044 113.76150579 -38.51001878 116.73916553 -19.453125 112.10546875 C-5.47545525 107.63071701 5.81041543 99.98492728 13 87 C21.30877125 68.6786926 23.6072752 46.30697298 17 27 C16.73316406 26.14019531 16.46632813 25.28039062 16.19140625 24.39453125 C12.92555971 15.03243784 6.41414462 7.41635471 0 0 Z " fill="#373737" transform="translate(541,60)"/>
<path d="M0 0 C0.66 0.33 1.32 0.66 2 1 C1.32195312 1.52207031 0.64390625 2.04414062 -0.0546875 2.58203125 C-10.71757969 11.01487258 -20.2137722 20.00881025 -25 33 C-25.31453125 33.71800781 -25.6290625 34.43601563 -25.953125 35.17578125 C-33.21711981 54.77230456 -31.71376828 77.20518097 -23.6484375 96.1796875 C-20.09175525 103.19370334 -15.14281738 109.09147426 -10 115 C-13 115 -13 115 -14.578125 113.671875 C-29.87954779 96.08238899 -34.25328018 75.78364546 -33 53 C-30.99522605 33.69676268 -21.19021688 17.73587547 -7 5 C-4.71867208 3.18360592 -2.4534904 1.58113826 0 0 Z " fill="#282828" transform="translate(453,49)"/>
<path d="M0 0 C1.74410156 0.18175781 1.74410156 0.18175781 3.5234375 0.3671875 C4.69132812 0.47289062 5.85921875 0.57859375 7.0625 0.6875 C8.46628906 0.96207031 8.46628906 0.96207031 9.8984375 1.2421875 C10.3934375 2.2321875 10.3934375 2.2321875 10.8984375 3.2421875 C10.19262695 5.16796875 10.19262695 5.16796875 9.01171875 7.5546875 C8.57384033 8.45243896 8.13596191 9.35019043 7.68481445 10.27514648 C7.19843506 11.25427002 6.71205566 12.23339355 6.2109375 13.2421875 C5.18833965 15.33637888 4.16757493 17.43146617 3.1484375 19.52734375 C2.61347656 20.62578613 2.07851563 21.72422852 1.52734375 22.85595703 C-1.15360173 28.42920551 -3.71743549 34.05538602 -6.2890625 39.6796875 C-10.70481682 49.30325969 -15.28687639 58.8129639 -20.1015625 68.2421875 C-21.10352184 70.24120663 -22.10378657 72.24107701 -23.1015625 74.2421875 C-23.76822917 75.57552083 -24.43489583 76.90885417 -25.1015625 78.2421875 C-26.41987875 74.28723874 -25.38071548 72.94037232 -23.7265625 69.1796875 C-23.26507813 68.11621094 -22.80359375 67.05273438 -22.328125 65.95703125 C-21.61252283 64.37313472 -20.87884169 62.79674588 -20.1015625 61.2421875 C-19.4415625 61.2421875 -18.7815625 61.2421875 -18.1015625 61.2421875 C-17.71291016 59.72625 -17.71291016 59.72625 -17.31640625 58.1796875 C-16.2027262 54.28523556 -14.5316487 50.84080522 -12.6640625 47.2421875 C-10.28369053 42.63567932 -8.12491116 38.01561728 -6.1015625 33.2421875 C-4.87629813 30.54296479 -3.61648609 27.86051944 -2.3515625 25.1796875 C-2.00738281 24.44886963 -1.66320312 23.71805176 -1.30859375 22.96508789 C1.98538391 16.00233704 5.41465993 9.1117614 8.8984375 2.2421875 C4.9384375 2.2421875 0.9784375 2.2421875 -3.1015625 2.2421875 C-3.4315625 3.8921875 -3.7615625 5.5421875 -4.1015625 7.2421875 C-4.7615625 7.2421875 -5.4215625 7.2421875 -6.1015625 7.2421875 C-6.4315625 7.9021875 -6.7615625 8.5621875 -7.1015625 9.2421875 C-6.40508688 4.22756306 -5.56668058 0.43467783 0 0 Z " fill="#282828" transform="translate(391.1015625,35.7578125)"/>
<path d="M0 0 C3.72465516 -0.17445692 6.08558291 -0.07558388 9.5234375 1.40625 C12.76364345 5.724754 14.71498804 10.23931002 16.65917969 15.24951172 C17.48222844 17.30341362 18.39304583 19.27185197 19.375 21.25390625 C23.67294341 29.95773228 23.67294341 29.95773228 22.5234375 33.40625 C8.5234375 5.72604695 8.5234375 5.72604695 8.5234375 2.40625 C0.9334375 2.73625 -6.6565625 3.06625 -14.4765625 3.40625 C-13.4865625 5.05625 -12.4965625 6.70625 -11.4765625 8.40625 C-10.75904317 10.34193068 -10.04277894 12.27813195 -9.34277344 14.22021484 C-7.75856627 18.21823935 -5.6501714 21.94378959 -3.6015625 25.71875 C6.96577697 45.52843682 6.96577697 45.52843682 7.5234375 52.40625 C5.42614735 49.73662463 3.75576165 47.11116355 2.25512695 44.06835938 C1.83491776 43.22067993 1.41470856 42.37300049 0.98176575 41.49963379 C0.53790024 40.59225464 0.09403473 39.68487549 -0.36328125 38.75 C-0.82515335 37.81071655 -1.28702545 36.87143311 -1.76289368 35.90368652 C-2.73581979 33.92108514 -3.70648789 31.93737428 -4.67504883 29.95263672 C-6.16064609 26.91323967 -7.65904589 23.88038324 -9.15820312 20.84765625 C-10.10235203 18.91965727 -11.04573757 16.99128424 -11.98828125 15.0625 C-12.43821945 14.15512085 -12.88815765 13.2477417 -13.35173035 12.31286621 C-13.76248306 11.46518677 -14.17323578 10.61750732 -14.59643555 9.74414062 C-14.96044968 9.00119751 -15.32446381 8.25825439 -15.69950867 7.49279785 C-16.4765625 5.40625 -16.4765625 5.40625 -16.4765625 1.40625 C-10.9896324 0.82253403 -5.47821643 0.64015113 0 0 Z " fill="#252525" transform="translate(270.4765625,35.59375)"/>
<path d="M0 0 C0.66 0.33 1.32 0.66 2 1 C1.5153125 1.42667969 1.030625 1.85335937 0.53125 2.29296875 C-8.50774625 10.72357102 -14.57578429 21.15085753 -18 33 C-18.35449219 34.17046875 -18.70898438 35.3409375 -19.07421875 36.546875 C-20.43181708 42.12179107 -20.42376211 47.72545368 -20.4375 53.4375 C-20.44209229 54.580979 -20.44668457 55.72445801 -20.45141602 56.90258789 C-20.33950493 65.5064334 -18.95263274 72.85935307 -15.99609375 80.90234375 C-15 84 -15 84 -16 87 C-17.10218079 84.68542034 -18.07058078 82.38771296 -19 80 C-19.35964844 79.08476562 -19.71929687 78.16953125 -20.08984375 77.2265625 C-26.83298234 57.40509462 -23.80654218 35.35383043 -14.6875 16.8125 C-13.81062113 15.19789432 -12.92282998 13.58878976 -12 12 C-11.34 12 -10.68 12 -10 12 C-9.75507813 11.42765625 -9.51015625 10.8553125 -9.2578125 10.265625 C-7.78889901 7.61975598 -6.04651756 5.85146861 -3.875 3.75 C-3.15054687 3.04359375 -2.42609375 2.3371875 -1.6796875 1.609375 C-1.12539063 1.07828125 -0.57109375 0.5471875 0 0 Z " fill="#383838" transform="translate(465,58)"/>
<path d="M0 0 C0.33 0 0.66 0 1 0 C3.69402803 20.20521022 1.41969862 42.1487271 -11 59 C-16.57181899 65.99691885 -22.8487721 71.65524094 -30 77 C-30.66 76.67 -31.32 76.34 -32 76 C-31.27554688 75.43152344 -30.55109375 74.86304688 -29.8046875 74.27734375 C-14.55387985 62.09703204 -4.01804696 46.67773832 -1 27 C-0.63917593 22.31527151 -0.49484364 17.63387277 -0.375 12.9375 C-0.33632813 11.69033203 -0.29765625 10.44316406 -0.2578125 9.15820312 C-0.16424642 6.10560983 -0.07850328 3.05301153 0 0 Z " fill="#343434" transform="translate(584,97)"/>
<path d="M0 0 C0.99 0.495 0.99 0.495 2 1 C-17.24663305 14.17828287 -42.54532412 16.90459489 -65.234375 13.27734375 C-73.64127532 11.65492923 -81.43050422 9.06818716 -89 5 C-86.77093477 4.23729556 -85.49245768 3.8220164 -83.23828125 4.63671875 C-82.60277344 4.98347656 -81.96726562 5.33023438 -81.3125 5.6875 C-61.70600643 14.80753834 -37.35367538 14.67140705 -17 8 C-11.82353827 6.01070326 -6.89595561 3.59437981 -2 1 C-1.34 0.67 -0.68 0.34 0 0 Z " fill="#2E2E2E" transform="translate(550,174)"/>
<path d="M0 0 C0.825 0.7425 1.65 1.485 2.5 2.25 C1.84 2.58 1.18 2.91 0.5 3.25 C-1.8203125 2.32421875 -1.8203125 2.32421875 -4.625 0.9375 C-13.43430595 -3.41724189 -21.36265254 -4.16433325 -31.0625 -4.1875 C-32.21113525 -4.19209229 -33.35977051 -4.19668457 -34.54321289 -4.20141602 C-42.71937201 -4.09482808 -49.33667736 -2.92481751 -56.83984375 0.25390625 C-59.5 1.25 -59.5 1.25 -62.5 0.25 C-61.00565577 -0.55229137 -59.50413528 -1.34121867 -58 -2.125 C-57.1646875 -2.56585938 -56.329375 -3.00671875 -55.46875 -3.4609375 C-40.08162413 -10.14218952 -14.11050631 -9.80750042 0 0 Z " fill="#202020" transform="translate(534.5,53.75)"/>
<path d="M0 0 C2.22414032 2.81457349 3.93439405 5.62258525 5.53125 8.83203125 C6.00699463 9.78464844 6.48273926 10.73726562 6.97290039 11.71875 C7.47684326 12.7396875 7.98078613 13.760625 8.5 14.8125 C9.02392334 15.86824219 9.54784668 16.92398438 10.08764648 18.01171875 C13.78643486 25.4880994 17.44393666 32.98447502 21.0625 40.5 C21.51496094 41.43561768 21.96742188 42.37123535 22.43359375 43.33520508 C29.37932124 57.86203627 29.37932124 57.86203627 28 62 C21.87183374 49.35977929 15.79362258 36.71104488 10.10400391 23.86645508 C7.34955208 17.68007077 4.35936863 11.6490454 1.21484375 5.65234375 C0 3 0 3 0 0 Z " fill="#424242" transform="translate(278,87)"/>
<path d="M0 0 C10.30610655 4.31026419 18.32761411 16.39199521 23 26 C27.74424744 38.04550011 27.74424744 38.04550011 26 44 C25.64808594 42.74445313 25.29617188 41.48890625 24.93359375 40.1953125 C20.73294773 25.73509073 14.62681371 16.41354418 4.35546875 5.56640625 C2 3 2 3 0 0 Z " fill="#2C2C2B" transform="translate(557,53)"/>
<path d="M0 0 C1.06476563 0.54269531 2.12953125 1.08539063 3.2265625 1.64453125 C20.43099664 10.22079593 34.96747224 11.4796256 54 11 C54 11.33 54 11.66 54 12 C34.22898937 16.09967445 16.80380228 12.46508988 0 2 C0 1.34 0 0.68 0 0 Z " fill="#0A0A0A" transform="translate(464,163)"/>
<path d="M0 0 C1.1538159 3.4614477 0.91562437 3.79774007 -0.6171875 6.90625 C-0.97683594 7.65003906 -1.33648437 8.39382812 -1.70703125 9.16015625 C-2.09246094 9.93230469 -2.47789062 10.70445313 -2.875 11.5 C-3.62369763 13.03061392 -4.37114481 14.56184028 -5.1171875 16.09375 C-5.45347168 16.77115234 -5.78975586 17.44855469 -6.13623047 18.14648438 C-7.11484955 20.15439219 -7.11484955 20.15439219 -8 23 C-8.66 23 -9.32 23 -10 23 C-10.10441406 23.68578125 -10.20882813 24.3715625 -10.31640625 25.078125 C-11.12782567 28.54636343 -12.44237369 31.51848005 -13.9375 34.75 C-14.46214844 35.89984375 -14.98679687 37.0496875 -15.52734375 38.234375 C-17 41 -17 41 -19 42 C-18.38383516 37.54335571 -16.62131874 33.93878258 -14.5625 30 C-11.0916554 23.22019721 -7.76289873 16.38230261 -4.5 9.5 C-4.05470947 8.5615625 -3.60941895 7.623125 -3.15063477 6.65625 C-2.09912324 4.43811151 -1.0488421 2.21940167 0 0 Z " fill="#2A2A2A" transform="translate(378,56)"/>
<path d="M0 0 C1.69352492 3.14085459 2.76593616 6.2806007 3.8125 9.6875 C7.28788052 20.16437704 12.83550779 27.64923021 20 36 C17 36 17 36 15.421875 34.671875 C6.9761724 24.9632636 -0.84971419 13.31218905 0 0 Z " fill="#3C3C3C" transform="translate(423,128)"/>
<path d="M0 0 C1.16273438 0.12117188 2.32546875 0.24234375 3.5234375 0.3671875 C4.69132812 0.47289062 5.85921875 0.57859375 7.0625 0.6875 C8.46628906 0.96207031 8.46628906 0.96207031 9.8984375 1.2421875 C10.2284375 1.9021875 10.5584375 2.5621875 10.8984375 3.2421875 C9.82434793 5.84692788 8.69798117 8.34184788 7.4609375 10.8671875 C7.12255859 11.57359375 6.78417969 12.28 6.43554688 13.0078125 C5.59688871 14.75600134 4.74855903 16.49954436 3.8984375 18.2421875 C2.79509941 14.93217324 2.92741161 14.4436939 4.1484375 11.3671875 C4.40109375 10.70976563 4.65375 10.05234375 4.9140625 9.375 C6.05532631 6.90226174 7.49725881 4.57748531 8.8984375 2.2421875 C4.9384375 2.2421875 0.9784375 2.2421875 -3.1015625 2.2421875 C-3.4315625 3.8921875 -3.7615625 5.5421875 -4.1015625 7.2421875 C-4.7615625 7.2421875 -5.4215625 7.2421875 -6.1015625 7.2421875 C-6.4315625 7.9021875 -6.7615625 8.5621875 -7.1015625 9.2421875 C-6.40508688 4.22756306 -5.56668058 0.43467783 0 0 Z " fill="#1E1E1E" transform="translate(391.1015625,35.7578125)"/>
<path d="M0 0 C0.66 0.33 1.32 0.66 2 1 C1.5153125 1.42667969 1.030625 1.85335937 0.53125 2.29296875 C-7.30086319 9.59792048 -12.33262815 18.435478 -17 28 C-18.25348607 25.04893565 -18.01044806 24.02593537 -16.78515625 20.984375 C-16.21667969 19.91703125 -15.64820313 18.8496875 -15.0625 17.75 C-14.49660156 16.67234375 -13.93070312 15.5946875 -13.34765625 14.484375 C-12.90292969 13.66453125 -12.45820313 12.8446875 -12 12 C-11.34 12 -10.68 12 -10 12 C-9.75507813 11.42765625 -9.51015625 10.8553125 -9.2578125 10.265625 C-7.78889901 7.61975598 -6.04651756 5.85146861 -3.875 3.75 C-3.15054687 3.04359375 -2.42609375 2.3371875 -1.6796875 1.609375 C-1.12539063 1.07828125 -0.57109375 0.5471875 0 0 Z " fill="#303030" transform="translate(465,58)"/>
<path d="M0 0 C0.33 0.66 0.66 1.32 1 2 C0.03395379 4.54112154 -0.99332242 6.97105948 -2.125 9.4375 C-2.6056189 10.50871094 -2.6056189 10.50871094 -3.09594727 11.6015625 C-4.05646675 13.7378614 -5.02732623 15.86921285 -6 18 C-6.52207031 19.15628906 -7.04414063 20.31257813 -7.58203125 21.50390625 C-8.71403237 24.00605281 -9.85283297 26.50477955 -11 29 C-11.33 29 -11.66 29 -12 29 C-11.55505948 22.30735296 -8.94633156 17.08313716 -6 11.125 C-5.5359375 10.16335937 -5.071875 9.20171875 -4.59375 8.2109375 C-1.17530907 1.17530907 -1.17530907 1.17530907 0 0 Z " fill="#282828" transform="translate(349,146)"/>
<path d="M0 0 C3.99453974 0.48713899 7.14826477 1.49583767 10.7890625 3.16796875 C15.68257879 5.0095217 20.89496463 5.91757897 26 7 C26 7.33 26 7.66 26 8 C17.56091892 8.84390811 8.5618787 6.14181001 1.578125 1.33203125 C1.05734375 0.89246094 0.5365625 0.45289063 0 0 Z " fill="#4B4B4B" transform="translate(461,178)"/>
<path d="M0 0 C1.13099142 3.30828873 0.92812792 4.93003624 -0.546875 8.07421875 C-0.8975 8.82380859 -1.248125 9.57339844 -1.609375 10.34570312 C-1.98578125 11.11849609 -2.3621875 11.89128906 -2.75 12.6875 C-3.1109375 13.47189453 -3.471875 14.25628906 -3.84375 15.06445312 C-5.9023689 19.37934817 -5.9023689 19.37934817 -7 21 C-7.99 21.33 -8.98 21.66 -10 22 C-8.20248446 17.27915654 -6.03862628 12.74793489 -3.875 8.1875 C-3.50246094 7.39923828 -3.12992187 6.61097656 -2.74609375 5.79882812 C-1.83204476 3.86526295 -0.91620158 1.93254612 0 0 Z " fill="#454545" transform="translate(393,52)"/>
<path d="M0 0 C2.74792483 3.40219265 6 7.48464588 6 12 C6.66 12 7.32 12 8 12 C8.66 10.68 9.32 9.36 10 8 C9.125 12.75 9.125 12.75 8 15 C7.01 15 6.02 15 5 15 C4.54625 13.9275 4.0925 12.855 3.625 11.75 C2.75710463 9.70571563 1.87324429 7.76650265 0.8125 5.8125 C0 4 0 4 0 0 Z " fill="#434343" transform="translate(327,138)"/>
<path d="M0 0 C7.1045724 0.99375021 13.09609298 2.80405697 19 7 C19.33 7.66 19.66 8.32 20 9 C15.84267439 7.65571507 11.78965948 6.1645833 7.75 4.5 C6.71359375 4.0771875 5.6771875 3.654375 4.609375 3.21875 C2 2 2 2 0 0 Z " fill="#343434" transform="translate(517,48)"/>
<path d="M0 0 C2.79811739 1.25696331 5.58717917 2.53288127 8.375 3.8125 C9.1690625 4.16892578 9.963125 4.52535156 10.78125 4.89257812 C11.92207031 5.41948242 11.92207031 5.41948242 13.0859375 5.95703125 C13.7876709 6.27647705 14.4894043 6.59592285 15.21240234 6.92504883 C17 8 17 8 19 11 C12.09142011 9.09763742 5.76522894 6.32091271 0 2 C0 1.34 0 0.68 0 0 Z " fill="#3C3C3B" transform="translate(464,163)"/>
<path d="M0 0 C-0.99 0 -1.98 0 -3 0 C-3 0.66 -3 1.32 -3 2 C-4.76641683 2.6987693 -6.53832664 3.38366583 -8.3125 4.0625 C-9.79169922 4.63677734 -9.79169922 4.63677734 -11.30078125 5.22265625 C-14 6 -14 6 -17 5 C-15.3970947 4.18501438 -13.79262722 3.37310073 -12.1875 2.5625 C-11.29417969 2.11003906 -10.40085937 1.65757813 -9.48046875 1.19140625 C-5.81076082 -0.57120937 -3.8776807 -1.20341815 0 0 Z " fill="#444444" transform="translate(489,49)"/>
<path d="M0 0 C0.33 0 0.66 0 1 0 C0.5188509 5.77378925 -1.18467181 9.95859836 -4 15 C-5.32830615 11.01508155 -4.23204404 9.59951452 -2.5625 5.8125 C-2.08941406 4.72582031 -1.61632812 3.63914062 -1.12890625 2.51953125 C-0.75636719 1.68808594 -0.38382812 0.85664062 0 0 Z " fill="#363636" transform="translate(370,99)"/>
<path d="M0 0 C0.33 0.99 0.66 1.98 1 3 C-1.31 5.31 -3.62 7.62 -6 10 C-6.66 9.67 -7.32 9.34 -8 9 C-5.36 6.03 -2.72 3.06 0 0 Z " fill="#D9D9D9" transform="translate(442,60)"/>
<path d="M0 0 C4.2742558 1.5830577 6.26531794 4.50568404 9 8 C6 8 6 8 4.39453125 6.50390625 C3.61142578 5.54291016 3.61142578 5.54291016 2.8125 4.5625 C2.28269531 3.92441406 1.75289063 3.28632813 1.20703125 2.62890625 C0 1 0 1 0 0 Z " fill="#272727" transform="translate(434,156)"/>
<path d="M0 0 C0.6875 1.625 0.6875 1.625 1 4 C-1.33333333 9.66666667 -1.33333333 9.66666667 -4 11 C-3.39301257 6.87248551 -1.96189209 3.6678852 0 0 Z " fill="#1A1A1A" transform="translate(363,87)"/>
<path d="M0 0 C1.13643966 3.40931897 0.86747764 4.00335456 -0.4375 7.1875 C-0.72496094 7.90292969 -1.01242187 8.61835937 -1.30859375 9.35546875 C-1.53675781 9.89816406 -1.76492188 10.44085938 -2 11 C-2.66 11 -3.32 11 -4 11 C-3.39301257 6.87248551 -1.96189209 3.6678852 0 0 Z " fill="#323232" transform="translate(383,45)"/>
<path d="M0 0 C0.99 0.33 1.98 0.66 3 1 C3.73046875 3.06640625 3.73046875 3.06640625 4.1875 5.5625 C4.34605469 6.38878906 4.50460937 7.21507812 4.66796875 8.06640625 C4.77753906 8.70449219 4.88710938 9.34257812 5 10 C2.35534962 6.8745041 1.15585285 3.91211733 0 0 Z " fill="#232323" transform="translate(302,139)"/>
<path d="M0 0 C0.33 0.66 0.66 1.32 1 2 C0.06553465 4.03144641 -0.93224776 6.03533587 -2 8 C-2.33 8 -2.66 8 -3 8 C-3 5.69 -3 3.38 -3 1 C-2.01 0.67 -1.02 0.34 0 0 Z " fill="#626262" transform="translate(353,138)"/>
</svg>
