<?xml version="1.0" encoding="UTF-8"?>
<svg version="1.1" xmlns="http://www.w3.org/2000/svg" width="197" height="79">
<path d="M0 0 C0.928125 0.7115625 0.928125 0.7115625 1.875 1.4375 C1.875 2.0975 1.875 2.7575 1.875 3.4375 C2.535 3.4375 3.195 3.4375 3.875 3.4375 C9.45223435 9.70827645 10.71554034 15.94592664 10.33203125 24.16015625 C9.23650533 32.01610708 5.41864977 36.90996589 -0.79638672 41.73510742 C-6.20334014 45.48997513 -10.48986338 46.24020679 -17 46.0625 C-18.32281982 46.04038452 -18.32281982 46.04038452 -19.67236328 46.01782227 C-28.44196386 45.6861442 -34.55570856 43.47199325 -40.625 37 C-46.18932946 30.28721882 -45.87087406 21.6893219 -45.125 13.4375 C-43.48459598 7.20985839 -39.46247497 2.88798887 -34.125 -0.5625 C-22.47212533 -6.13845498 -11.50540595 -5.75270298 0 0 Z M-30.20703125 5.28515625 C-35.66049245 11.22731866 -36.49799627 15.64614435 -36.40234375 23.6171875 C-35.83073219 29.42991354 -33.39299458 33.5957326 -29 37.375 C-23.35128577 41.42733847 -17.93699531 41.03489788 -11.125 40.4375 C-6.65549879 38.32036785 -3.77713781 35.60514513 -1.125 31.4375 C1.25196076 24.75937216 1.67529151 18.11647546 -0.9140625 11.38671875 C-3.40758765 6.65307547 -6.2719414 3.44858392 -11.3515625 1.6484375 C-18.51586639 -0.19254461 -24.5249442 0.24270377 -30.20703125 5.28515625 Z " fill="#313131" transform="translate(173.125,19.5625)"/>
<path d="M0 0 C3.12346337 -0.48995504 5.89288214 -0.66019705 9 0 C11.43223237 2.26513243 12.61730588 5.01144008 14 8 C14.41894531 8.7940625 14.83789062 9.588125 15.26953125 10.40625 C17.85407526 15.34108932 20.03342036 20.37132095 22.0078125 25.578125 C23.19097755 28.46616567 24.5790959 31.22241346 26 34 C31.36085237 23.88818346 36.68010633 13.76712451 41.72265625 3.4921875 C43 1 43 1 44 0 C45.66617115 -0.04063832 47.33388095 -0.042721 49 0 C48.42349023 5.21294754 46.7118983 9.23190562 44.4375 13.875 C44.08324951 14.61314941 43.72899902 15.35129883 43.36401367 16.11181641 C40.57607402 21.89443764 37.70058284 27.63372231 34.80834961 33.36474609 C32.05189798 38.84180651 29.47274869 44.38876258 27 50 C25.35 50 23.7 50 22 50 C18.44165057 43.19123522 15.31392604 36.22783058 12.2421875 29.19140625 C9.33950529 22.61126575 6.14837869 16.1990914 2.79394531 9.83789062 C2.42881836 9.13083984 2.06369141 8.42378906 1.6875 7.6953125 C1.36136719 7.07672363 1.03523438 6.45813477 0.69921875 5.82080078 C0 4 0 4 0 0 Z " fill="#0B0B0B" transform="translate(74,15)"/>
<path d="M0 0 C2.97 0 5.94 0 9 0 C9 14.85 9 29.7 9 45 C17.58 45 26.16 45 35 45 C35.495 47.475 35.495 47.475 36 50 C24.12 50 12.24 50 0 50 C0 33.5 0 17 0 0 Z " fill="#050505" transform="translate(20,15)"/>
<path d="M0 0 C2.97 0 5.94 0 9 0 C9 16.5 9 33 9 50 C6.03 50 3.06 50 0 50 C-1.58445025 48.41554975 -1.12728029 46.80065777 -1.12939453 44.60375977 C-1.13254669 43.66931534 -1.13569885 42.73487091 -1.13894653 41.77210999 C-1.1369223 40.75547775 -1.13489807 39.73884552 -1.1328125 38.69140625 C-1.13376923 37.65435043 -1.13472595 36.61729462 -1.13571167 35.54881287 C-1.13639369 33.35049377 -1.13453791 31.15217268 -1.13037109 28.95385742 C-1.12502854 25.58052051 -1.1303126 22.20731708 -1.13671875 18.83398438 C-1.13605787 16.7031247 -1.13477649 14.57226512 -1.1328125 12.44140625 C-1.13483673 11.42679825 -1.13686096 10.41219025 -1.13894653 9.36683655 C-1.13579437 8.42923996 -1.13264221 7.49164337 -1.12939453 6.52563477 C-1.12859894 5.69814224 -1.12780334 4.87064972 -1.12698364 4.01808167 C-1 2 -1 2 0 0 Z " fill="#070707" transform="translate(60,15)"/>
<path d="M0 0 C1.2065625 0.0309375 1.2065625 0.0309375 2.4375 0.0625 C1.86100063 5.27535343 0.14957913 9.29452809 -2.125 13.9375 C-2.47780029 14.67202393 -2.83060059 15.40654785 -3.1940918 16.16333008 C-6.8971126 23.83908473 -10.72068234 31.45553066 -14.5625 39.0625 C-15.56340365 41.06204792 -16.56372944 43.06188575 -17.5625 45.0625 C-18.65908936 41.77273192 -18.36203138 40.34946233 -17.5625 37.0625 C-19.0475 37.5575 -19.0475 37.5575 -20.5625 38.0625 C-21.59557771 36.29878182 -22.61362049 34.52624967 -23.625 32.75 C-24.19347656 31.76386719 -24.76195313 30.77773438 -25.34765625 29.76171875 C-26.5625 27.0625 -26.5625 27.0625 -25.5625 24.0625 C-23.9125 27.3625 -22.2625 30.6625 -20.5625 34.0625 C-15.2039678 23.94921387 -9.8824841 13.82980879 -4.83984375 3.5546875 C-3.05613168 0.0745398 -3.05613168 0.0745398 0 0 Z " fill="#0A0A0A" transform="translate(120.5625,14.9375)"/>
<path d="M0 0 C2.97 0 5.94 0 9 0 C9 14.85 9 29.7 9 45 C17.58 45 26.16 45 35 45 C35.495 47.475 35.495 47.475 36 50 C24.12 50 12.24 50 0 50 C0 33.5 0 17 0 0 Z M2 2 C2 17.51 2 33.02 2 49 C12.56 49 23.12 49 34 49 C34 48.01 34 47.02 34 46 C25.42 46 16.84 46 8 46 C8 31.48 8 16.96 8 2 C6.02 2 4.04 2 2 2 Z " fill="#737373" transform="translate(20,15)"/>
<path d="M0 0 C2.97 0 5.94 0 9 0 C9 16.5 9 33 9 50 C6.03 50 3.06 50 0 50 C-1.58445025 48.41554975 -1.12728029 46.80065777 -1.12939453 44.60375977 C-1.13254669 43.66931534 -1.13569885 42.73487091 -1.13894653 41.77210999 C-1.1369223 40.75547775 -1.13489807 39.73884552 -1.1328125 38.69140625 C-1.13376923 37.65435043 -1.13472595 36.61729462 -1.13571167 35.54881287 C-1.13639369 33.35049377 -1.13453791 31.15217268 -1.13037109 28.95385742 C-1.12502854 25.58052051 -1.1303126 22.20731708 -1.13671875 18.83398438 C-1.13605787 16.7031247 -1.13477649 14.57226512 -1.1328125 12.44140625 C-1.13483673 11.42679825 -1.13686096 10.41219025 -1.13894653 9.36683655 C-1.13579437 8.42923996 -1.13264221 7.49164337 -1.12939453 6.52563477 C-1.12859894 5.69814224 -1.12780334 4.87064972 -1.12698364 4.01808167 C-1 2 -1 2 0 0 Z M2 2 C2 17.51 2 33.02 2 49 C3.98 49 5.96 49 8 49 C8 33.49 8 17.98 8 2 C6.02 2 4.04 2 2 2 Z " fill="#808080" transform="translate(60,15)"/>
<path d="M0 0 C0.66 0 1.32 0 2 0 C0.60121198 4.46797338 -1.13630772 8.63822079 -3.125 12.875 C-3.66382812 14.02742188 -4.20265625 15.17984375 -4.7578125 16.3671875 C-5.37269531 17.67042969 -5.37269531 17.67042969 -6 19 C-4.35 18.01 -2.7 17.02 -1 16 C-2.44323469 20.73789165 -4.37226733 24.98858151 -6.625 29.375 C-6.94984375 30.01566406 -7.2746875 30.65632813 -7.609375 31.31640625 C-8.40257407 32.87947501 -9.20077031 34.44000622 -10 36 C-11.09658936 32.71023192 -10.79953138 31.28696233 -10 28 C-10.99 28.33 -11.98 28.66 -13 29 C-14.03307771 27.23628182 -15.05112049 25.46374967 -16.0625 23.6875 C-16.63097656 22.70136719 -17.19945313 21.71523438 -17.78515625 20.69921875 C-19 18 -19 18 -18 15 C-16.35 18.3 -14.7 21.6 -13 25 C-11.39505797 21.95874024 -9.79102201 18.91700837 -8.1875 15.875 C-7.73568359 15.0190625 -7.28386719 14.163125 -6.81835938 13.28125 C-4.49750235 8.87670382 -2.20307093 4.46469523 0 0 Z " fill="#616161" transform="translate(113,24)"/>
<path d="M0 0 C-0.51949219 0.23074219 -1.03898437 0.46148438 -1.57421875 0.69921875 C-7.85836617 3.63801597 -12.90643893 6.99385109 -15.4921875 13.78515625 C-17.13912676 20.96834518 -17.15671229 28.82750927 -13.34765625 35.28515625 C-10.94860967 38.3378561 -8.05452052 40.63763684 -5 43 C-4.34 43.66 -3.68 44.32 -3 45 C-8.32059963 44.67753942 -11.43259172 41.65571047 -15 38 C-19.9812106 31.02630517 -19.65236217 23.31295798 -19 15 C-17.15142668 7.91751428 -12.06574527 3.53302384 -6.03125 -0.2265625 C-3.59113812 -1.15568202 -2.41931909 -0.86404253 0 0 Z " fill="#606060" transform="translate(147,18)"/>
<path d="M0 0 C3.12346337 -0.48995504 5.89288214 -0.66019705 9 0 C11.43397749 2.26675766 12.60962119 5.01308277 14 8 C14.47695312 8.87527344 14.95390625 9.75054687 15.4453125 10.65234375 C18.10568139 15.60237438 18.10568139 15.60237438 19 18 C18.67 18.99 18.34 19.98 18 21 C15 15 12 9 9 3 C7.02 3 5.04 3 3 3 C3.30292969 3.62567871 3.60585937 4.25135742 3.91796875 4.89599609 C5.28267165 7.7204062 6.64140247 10.54764837 8 13.375 C8.71542969 14.85226563 8.71542969 14.85226563 9.4453125 16.359375 C9.89648438 17.30039062 10.34765625 18.24140625 10.8125 19.2109375 C11.23144531 20.08024902 11.65039062 20.94956055 12.08203125 21.84521484 C13 24 13 24 13 26 C12.34 26 11.68 26 11 26 C9.15359363 22.4232573 7.32519502 18.83760692 5.5 15.25 C4.97535156 14.23421875 4.45070313 13.2184375 3.91015625 12.171875 C3.41386719 11.1921875 2.91757813 10.2125 2.40625 9.203125 C1.94541016 8.30239258 1.48457031 7.40166016 1.00976562 6.47363281 C0 4 0 4 0 0 Z " fill="#868686" transform="translate(74,15)"/>
<path d="M0 0 C5.84022739 0.35756494 9.87027116 1.71693965 14 6 C17.96956101 11.91931597 18.92503914 18.0058016 18 25 C16.70088418 30.71610962 14.40410516 34.19104419 10 38 C10 35 10 35 11.9375 31.9375 C14.97350206 26.78713936 15.60855461 21.39821203 14.55859375 15.53515625 C13.10364329 10.53844068 11.19877231 7.24450587 7 4 C4.69558026 2.81664932 2.43617626 1.90759508 0 1 C0 0.67 0 0.34 0 0 Z " fill="#797979" transform="translate(158,20)"/>
<path d="M0 0 C1.1446875 0.12375 1.1446875 0.12375 2.3125 0.25 C1.7409057 5.76368655 -0.25191432 10.13572211 -2.625 15.0625 C-2.98529297 15.83787109 -3.34558594 16.61324219 -3.71679688 17.41210938 C-6.4287059 23.12060295 -6.4287059 23.12060295 -8.6875 24.25 C-8.04861113 19.18959451 -5.82470723 14.96988466 -3.625 10.4375 C-3.05942383 9.25510742 -3.05942383 9.25510742 -2.48242188 8.04882812 C-1.55579839 6.11347527 -0.62232533 4.18140451 0.3125 2.25 C-0.6775 2.25 -1.6675 2.25 -2.6875 2.25 C-3.3475 4.23 -4.0075 6.21 -4.6875 8.25 C-5.375 6.5 -5.375 6.5 -5.6875 4.25 C-4.14687092 1.16874185 -3.48812938 0.32447715 0 0 Z " fill="#939393" transform="translate(120.6875,14.75)"/>
<path d="M0 0 C3.77382475 4.41265402 5.77711513 9.8172002 8.12695312 15.06445312 C8.46791016 15.81017578 8.80886719 16.55589844 9.16015625 17.32421875 C9.46574463 18.00572998 9.77133301 18.68724121 10.08618164 19.3894043 C10.90786292 21.18611563 10.90786292 21.18611563 13 22 C13.33 21.01 13.66 20.02 14 19 C14.33 19.66 14.66 20.32 15 21 C14.67 21.66 14.34 22.32 14 23 C12.35 23 10.7 23 9 23 C0 5.66393443 0 5.66393443 0 0 Z " fill="#828282" transform="translate(87,42)"/>
<path d="M0 0 C0.66 0 1.32 0 2 0 C0.32067048 5.8100941 -2.39208392 11.00868579 -5.125 16.375 C-5.59292969 17.30183594 -6.06085938 18.22867188 -6.54296875 19.18359375 C-7.69169056 21.45759406 -8.84411881 23.72963282 -10 26 C-11.17976601 22.50028494 -11.00967899 22.02302426 -9.453125 18.3203125 C-8.73084734 16.91558866 -7.99596163 15.5172914 -7.25 14.125 C-6.8890625 13.43019531 -6.528125 12.73539063 -6.15625 12.01953125 C-5.44659116 10.65420935 -4.73250787 9.2911766 -4.01367188 7.93066406 C-2.63603697 5.30678717 -1.3152922 2.6555583 0 0 Z " fill="#858585" transform="translate(113,24)"/>
<path d="M0 0 C5.890236 0.36062669 9.70620254 1.8726288 14 6 C16.71474078 10.11589731 17.3497368 13.10368478 17 18 C16.34 18 15.68 18 15 18 C14.84144531 17.40832031 14.68289062 16.81664063 14.51953125 16.20703125 C12.95856011 10.92042734 11.49699869 7.47495353 7 4 C4.69558026 2.81664932 2.43617626 1.90759508 0 1 C0 0.67 0 0.34 0 0 Z " fill="#989898" transform="translate(158,20)"/>
<path d="M0 0 C0.42410156 0.57621094 0.84820312 1.15242188 1.28515625 1.74609375 C2.93810917 3.91865374 4.65165784 5.99824146 6.4375 8.0625 C7.01371094 8.73410156 7.58992187 9.40570313 8.18359375 10.09765625 C9.9923017 11.99193748 11.86345012 13.4926758 14 15 C8.71465294 14.67967594 5.56779936 11.61273386 2 8 C-0.1519437 4.77208445 -0.20086443 3.71599191 0 0 Z " fill="#9C9C9C" transform="translate(130,48)"/>
<path d="M0 0 C-0.51949219 0.23074219 -1.03898438 0.46148438 -1.57421875 0.69921875 C-8.34427408 3.86525202 -12.44230039 8.09187088 -17 14 C-16.57884453 9.22690462 -14.41593813 6.19752776 -11 3 C-7.30703732 0.24060507 -4.58230485 -1.53411957 0 0 Z " fill="#919191" transform="translate(147,18)"/>
<path d="M0 0 C0.99 0 1.98 0 3 0 C2.46930939 3.82097239 1.50298434 6.06171403 -1 9 C-1 8.34 -1 7.68 -1 7 C-1.99 7 -2.98 7 -4 7 C-3.00978527 4.02935582 -2.07277359 2.31193977 0 0 Z " fill="#1E1E1E" transform="translate(118,17)"/>
<path d="M0 0 C0.33 0 0.66 0 1 0 C1.3913152 4.45936282 0.21759262 6.97791276 -2 10.8125 C-2.556875 11.78832031 -3.11375 12.76414062 -3.6875 13.76953125 C-4.120625 14.50558594 -4.55375 15.24164063 -5 16 C-6.39211215 11.82366356 -4.9535579 10.21039485 -3.0625 6.3125 C-2.49660156 5.13300781 -1.93070312 3.95351563 -1.34765625 2.73828125 C-0.90292969 1.83464844 -0.45820312 0.93101563 0 0 Z " fill="#898989" transform="translate(118,23)"/>
<path d="M0 0 C0.66 0 1.32 0 2 0 C0.68938409 4.23429756 -0.94356259 8.07407404 -3 12 C-3.66 12 -4.32 12 -5 12 C-4.35550393 8.98782888 -3.34977818 6.48344164 -1.9375 3.75 C-1.57527344 3.04359375 -1.21304688 2.3371875 -0.83984375 1.609375 C-0.56269531 1.07828125 -0.28554687 0.5471875 0 0 Z " fill="#666666" transform="translate(113,24)"/>
<path d="M0 0 C0.99 0 1.98 0 3 0 C2.8125 2.3125 2.8125 2.3125 2 5 C-0.5625 6.8125 -0.5625 6.8125 -3 8 C-1.125 2.25 -1.125 2.25 0 0 Z " fill="#1A1A1A" transform="translate(109,36)"/>
</svg>
